/* XPM */
static char *_4e7766827d9493d9d226a0aec5c29bbDOuVxRgVIwmwOBoI[] = {
/* columns rows colors chars-per-pixel */
"64 64 60 1 ",
"  c black",
". c #222034",
"X c #001E53",
"o c #3F3F74",
"O c #433F75",
"+ c #4A3F77",
"@ c #4D3F78",
"# c #543F7A",
"$ c #5B3F7D",
"% c #613F7F",
"& c #474076",
"* c #494177",
"= c #4D4179",
"- c #53427B",
"; c #5C417E",
": c #61417F",
"> c #696A6A",
", c #00379A",
"< c #5F3F80",
"1 c #643F81",
"2 c #6B3F84",
"3 c #0A48B7",
"4 c #5D4680",
"5 c #5E4880",
"6 c #634081",
"7 c #674083",
"8 c #634482",
"9 c #684083",
"0 c #6B4085",
"q c #6E4384",
"w c #6E4086",
"e c #644A83",
"r c #6B4B86",
"t c #704187",
"y c #754387",
"u c #724486",
"i c #744587",
"p c #704A87",
"a c #724188",
"s c #76428A",
"d c #764488",
"f c #7A438B",
"g c #794589",
"h c #7C458B",
"j c #7C458C",
"k c #744E8A",
"l c #76508C",
"z c #7B518E",
"x c #1C63E2",
"c c #845592",
"v c #895693",
"b c #8C5996",
"n c #915997",
"m c #955C99",
"M c #9A5E9C",
"N c #9F619E",
"B c #A0619E",
"V c #9BADB7",
"C c #EEC39A",
"Z c white",
/* pixels */
"sssssssssssawwtaa22211%%$$#@@@####@++OOOOooOO@#$$$$$11wtssssssss",
"ssssaaaaasatwwttt2211%%%$$#@@@## #@@++OOOooOO+@@###$$17wtsssssss",
"ssatwwwwtaatwwttt22111%%$$#@@@     @+++OOOoOOOO+O@@##$67wtssssss",
"atw097790wttttttt2221111%$#@+ CC CC ++OOOoooOOOOOO+@#$;7wtssssss",
"w0711<$110wtttatttww22221$##@       OOOOOoooOOOOOOO+#$69wtssssss",
"11$$$$$$17wtasssssatwww211$#@ CC CC OOOooooOOO+OOOO+#$7wtysggfss",
"$$$####$$1wtassssssattw211$#@       OOoooOOOO++OOOO@#:9wtsfgjhfs",
"###@@@#$11wtassaaasaatw911$#@ CC CC oooooOOO+++OOOO@#:9wtsghjjgf",
"#@+++@#$12waaatwwttttw076$#@O       ooooOOOO+++OOO+#$:9wuyggjjff",
"++OOO@#$10wtaw0990                             OOO+#;:9wtydgggfs",
"OOOOO@#$10www06<17 XXXXXXXX33333333333XXXXXXXX +O+@#;69wtudggfss",
"OOOO+@##$67776$$                                 +@#$:9wtuidgfss",
"ooOO+@###$;;;### XXXXXXXXXXXXX33333XXXXXXXXXXXXX @##$;79wuuidgff",
"ooOO+@@@@#@@@@                                     ##;:79wwudgff",
"OOOOO+@@@@OOO+ 33333333333333333333333333333333333 @@#;;679wiggf",
"OOOOO++++OOOO                                       +@-;;67wuggg",
"OOOOOOO+OOOOO .CCC.CCC.C...C.CCC.CCC.CCC..CCC.CC.CC +@##;;70udgg",
"++OOOOOOOOOoO .C.C.C.C.C...C.C...C...C.C..C.C..CCC. @@##;;69wdgg",
"OOOOOOOOOOOOO .CCC.C.C.C...C.C...CC..CCCC.C.C...C.. ####;;;70udg",
"OOOOooooooOOO .C...C.C.C...C.C...C...C..C.C.C..CCC. $$$$$;;67wui",
"ooOOooooooOOO .C...CCC.CCC.C.CCC.CCC.CCCC.CCC.CC.CC $$$$$$$;679w",
"oOooooooooOOO                                       %$$###$;;677",
"ooooooooooOOO+ 3 3333333333333333333333333333333 3 1%$$#####$;;;",
"ooooooooooOOO+ 3                3      ,,,       3 1$$##@@@###$;",
"ooooooooooOOOO , 3333333333333,,,,,,,,,,33333333 3 1$##@@++@####",
"ooooooooooooOO ,                                 3 $$#@@++++@@@@",
"oooooooooooooo , 3,3333333333333 333333XXXXXXX33 3 $##@++++++++@",
"oooooooooooooo , 3,,,,3333333333 33,,,,,,,3333X3 3 ##@+OO+@+OO++",
"oooooooooooooo X 3             3 3             3 3 #@+OOO+@@+++@",
"oooooooooooooo X 3 CCC CCC CCC 3 3 CCC CCC CCC 3 , #@+OOOO+@@@@=",
"ooooooooooooOO X x CCC CCC CCC 3 3 CCC CCC CCC 3 , #@+OOOO+@@@==",
"oooooooOOOOOOO X x CCC CCC CCC 3 3 CCC CCC CCC 3 X #@+OOOO@@@==-",
"oooOOOOOOOOOOO 3 x             3 3             3 X #@+OOO+@@@@@@",
"ooOOOOOOOOOOO+ 3 x CCC CCC CCC 3 3 CCC CCC CCC 3 X #@++OOO+@@+++",
"OOOOOOOOOOOO++ 3 3 CCC CCC CCC 3 3 CCC CCC CCC 3 X #@+OOOOOOOOOO",
"OOOOO+++++O+++ 3 3 CCC CCC CCC 3 3 CCC CCC CCC 3 X #@+OOOOOOOOOO",
"OOOOO++@@@@@@@ x 3             3 3             3 X -=+OOOOOOoooo",
"OOOO+@@------- x 333333333333333 333333333333333 X --*OOoooooooo",
"OOO+@=-;;88888 x 3             3 3             3 X ;-*OOoooooooo",
"OOO+=-;8rpkkkk x 3 33333333333 3 > 3333333333, 3 X ;-*Oooooooooo",
"OOO@-;8rkzcvvc 3 3 3ZZZZZZZZZ3 3 > 3333XX333,, 3 X -=OOOoooooooo",
"OO+@-;rkcvnmMm 3 3 3ZVVVVVVVZ3 3 > 33xxxX333,3 3 X -@OOOOooooooo",
"OO+@-4rzcnMMBN 3 3 3ZVVVVVZZZ3 3 > 3333,,XX,,3 3 3 =+OOOOOOooooo",
"OOO=-4rzcnMMBN , 3 3ZVVVZZZZZ3 3 > 333,,3,XX33 3 3 @+++@OOOooooo",
"OOO+=;ekcbmMMM , 3 3ZVVVVVVVZ3 3 3 33,333,3X33 3 , @+@@@OOOOoooo",
"OOOO*-;rlcbmmn , 3 3ZZZZZZZZZ3 3 > 333333,3333 3 , +++@@OOOooooo",
"oOOOO*-4rzcbbc , 3 33333333333 3 3 33333333333 3 , OOO@OOooooOOO",
"oOooOO*-5rzccc , 3             3 3             3 , OOOOOOOoOOOO+",
"OOOooOO*-ekzzz 3 333333333333333 333333333333333 , OOoOOOOOOO@##",
"OOOoooO&=;elll 3 333333333333333 333333333333333 3 OOOOOOOO+@#$$",
"OOOOoooO*-4err 3 3             3 3             3 3 OOOOOO+@@#$<1",
"OOOOoooOO*-;ee 3 3 333333,,333 3 3 33333,,,,33 3 3 oooOOO@@##$67",
"+OOOooooOO*=-- 3 3 3XX3,,,3333 3 3 3333,,33333 3 3 ooooOO+@##$10",
"@+OOooooOOO&** 3 3 33XX,xxx333 3 3 333,,333333 3 3 ooooOOO+@#$10",
"@+OOOooooOOOOO 3 3 333Xxx33333 3 3 333333XX333 3 3 ooooOOOO@#$12",
"#@+OOooooooOOO 3 3 3333XX33333 3 3 33xxxXX3xx3 3 3 oooooOO+@#$12",
"##@+OOOOOooooo 3 3 33,,,XX,,,3 3 3 333,XX333x3 3 3 OOOOOOO@#$%12",
"$$#@+OOOOOOooo 3 3 333333XX333 3 3 333XX,,,3xx 3 3 OOOOOO+#$$122",
"11$##@++OOOOoo 3 3 3333333XXX3 3 3 33X33333333 3 3 @@@+++@#$1122",
"221$$###@+OOOO 3 3             3 3             3 3 ####@@#$11222",
"w22111$$#@+OOO 3 333333333333333 333333333333333 3 $$$####$1122t",
"tttw2211$##+OO.....................................$$$$###$1122t",
"ssattw221$#@+.......................................%$$###$12wtt",
"ssssattw21$#@.......................................1$$###$12wta"
};
